<svg width="470" height="470" viewBox="0 0 470 470" fill="none" xmlns="http://www.w3.org/2000/svg">
<path d="M77.1981 310.919C72.1816 313.635 70.7945 320.408 70.9679 326.257C71.1413 332.106 72.2394 338.244 70.0201 343.596C67.1188 350.681 59.0738 354.842 57.3053 362.321C55.976 367.881 58.5421 373.81 57.3053 379.393C55.9645 385.67 50.37 389.796 46.6249 394.963C43.0612 399.946 41.2005 405.946 41.3194 412.07C41.3772 414.787 41.8164 417.572 41.0766 420.162C40.0363 423.872 36.8923 426.45 34.673 429.559C31.1613 434.611 30.0574 440.956 31.6561 446.897C32.4519 450.077 33.7598 453.107 35.5284 455.867C37.3084 458.514 40.0132 461.219 43.111 462.086H443.175C442.32 453.734 436.486 446.736 428.426 444.389C418.89 441.915 407.794 446.782 399.471 441.384C394.605 438.228 392.166 432.402 389.646 427.085C386.074 419.561 380.873 411.677 372.886 410.198C365.951 408.915 359.073 412.972 351.999 413.157C345.237 413.239 338.889 409.911 335.111 404.303C332.8 400.835 331.447 396.489 328.373 393.646C322.905 388.583 314.502 390.178 307.278 391.611C300.053 393.044 291.222 393.599 286.842 387.508C285.789 386.209 285.039 384.693 284.645 383.069C281.941 372.319 271.041 364.471 260.372 365.569C254.534 366.159 248.986 369.037 243.126 368.875C234.376 368.574 227.36 361.558 221.569 354.773C215.778 347.988 209.582 340.509 200.994 338.729C196 337.701 190.845 338.729 185.748 338.787C179.049 338.773 172.477 336.957 166.722 333.528C162.701 331.049 159.116 327.925 156.111 324.281C153.799 321.645 151.198 319.287 147.684 318.756C143.789 318.166 139.836 319.542 135.917 319.299C130.415 318.975 124.578 317.38 121.076 312.641C119.746 310.838 118.868 308.722 117.608 306.861C114.068 301.467 107.854 298.449 101.426 299.001" fill="#FFAF03"/>
<path d="M279.271 60.8077C278.056 65.4885 276.511 70.0773 274.647 74.5396C283.224 78.4581 293.002 78.4927 302.388 78.4465C303.788 72.2665 304.294 65.9177 303.891 59.594C303.964 58.6392 303.598 57.7031 302.897 57.051L279.271 60.8077Z" fill="#FFB6AD"/>
<path d="M303.128 57.1666L302.978 57.051L279.271 60.8077C278.056 65.4885 276.511 70.0773 274.647 74.5396C277.901 75.9878 281.333 76.9946 284.853 77.5334C286.185 74.9994 287.866 72.6648 289.847 70.598C293.354 67.13 297.16 63.9777 301.221 61.1775C301.775 60.8162 302.267 60.3672 302.677 59.8483C303.201 59.0588 303.365 58.084 303.128 57.1666Z" fill="#FF9C90"/>
<path d="M270.22 22.4668C269.307 23.1025 263.111 27.0326 260.973 31.2978C259.528 34.1181 267.55 37.0772 267.55 37.0772L270.22 22.4668Z" fill="#FF8178"/>
<ellipse cx="287.535" cy="39.2966" rx="22.8403" ry="26.2155" fill="#FFB6AD"/>
<ellipse cx="280.796" cy="41.9088" rx="10.8653" ry="10.8653" fill="#FF8178"/>
<ellipse cx="276.681" cy="29.5523" rx="2.24242" ry="2.99375" fill="#211E21"/>
<path d="M315.889 40.0941C315.678 43.3589 314.788 46.5437 313.277 49.4453C311.187 53.8783 308.461 57.9826 305.185 61.6283C304.569 62.337 303.892 62.9906 303.163 63.5818C302.992 63.7244 302.796 63.8342 302.585 63.9054C302.317 63.9462 302.044 63.9224 301.787 63.8361C300.846 63.466 299.974 62.9383 299.21 62.2756C297.809 61.103 296.721 59.6019 296.042 57.9064C295.352 56.6337 294.795 55.2935 294.378 53.907C293.95 52.5175 293.95 51.0313 294.378 49.6418C295.126 48.1976 295.992 46.8175 296.967 45.5153C297.665 44.2429 298.06 42.827 298.123 41.3772C298.244 40.5046 298.056 39.6171 297.591 38.8689C297.089 38.1006 296.072 37.8616 295.28 38.3256C294.986 38.5809 294.756 38.9016 294.609 39.2619C294.32 39.8283 294.054 40.4178 293.812 40.9842C293.554 41.672 293.225 42.3307 292.829 42.9492C292.413 43.5561 291.773 43.9722 291.049 44.1051C290.301 44.244 289.557 43.8386 289.269 43.1341C289.186 42.8492 289.158 42.551 289.188 42.2557C289.368 39.7299 290.019 37.2601 291.107 34.9736C289.698 34.5217 288.423 33.7273 287.396 32.6618C283.952 29.4048 281.867 24.9661 281.559 20.236C281.088 20.6969 280.507 21.0309 279.872 21.2069C279.216 21.4682 278.527 21.6393 277.826 21.7155C277.028 21.8196 276.23 21.912 275.421 21.9814C274.581 22.0855 273.731 22.0855 272.89 21.9814C272.038 21.8573 271.252 21.4502 270.659 20.8255C272.427 17.8291 275.035 15.4176 278.161 13.8902C279.474 13.3179 280.826 12.8389 282.206 12.4569C283.863 11.9466 285.555 11.5603 287.269 11.301C293.511 10.4512 299.825 12.2443 304.688 16.2482C311.069 21.5768 315.866 28.8936 316.247 37.2044C316.363 38.0713 315.912 39.1926 315.889 40.0941Z" fill="#6A3445"/>
<ellipse cx="316.374" cy="23.5649" rx="15.7316" ry="15.7316" fill="#6A3445"/>
<path d="M427.767 290.448C432.934 298.181 431.674 308.26 426.357 319.438C418.208 317.536 412.019 310.894 410.697 302.631C409.376 294.368 413.185 286.127 420.335 281.779C423.115 284.394 425.607 287.301 427.767 290.448Z" fill="#48B290"/>
<path d="M345.202 454.908C347.641 458.849 342.567 462.12 342.567 462.12H270.127C260.73 462.12 258.568 457.982 259.054 453.405C259.505 453.867 262.522 456.503 273.306 456.503C279.918 456.503 300.261 457.462 317.669 457.485C331.32 457.474 343.133 456.954 345.202 454.908Z" fill="#349D7B"/>
<path d="M336.117 240.421C336.117 240.964 336.753 265.33 306.064 277.802C288.934 286.287 293.58 314.132 293.58 314.132C279.039 312.236 265.839 309.844 257.748 306.873L291.269 228.273C291.269 228.273 311.231 232.584 336.175 240.467L336.117 240.421Z" fill="#48B290"/>
<path d="M334.325 448.804C340.879 450.804 343.977 452.943 345.202 454.908C343.133 456.953 331.32 457.474 317.704 457.474C318.259 447.071 330.176 447.625 330.569 447.649L334.325 448.804Z" fill="white"/>
<path d="M330.534 447.66C330.141 447.66 318.224 447.036 317.669 457.485C300.261 457.485 279.918 456.503 273.306 456.503C262.556 456.503 259.505 453.867 259.054 453.405C259.516 450.463 260.541 447.637 262.071 445.083C265.446 439.095 282.287 410.649 282.287 410.649L288.945 412.891L292.725 414.324L285.385 425.305C283.801 427.618 283.581 430.603 284.809 433.122C286.038 435.642 288.525 437.307 291.322 437.484C294.12 437.66 296.796 436.32 298.331 433.974L307.682 420.011L325.899 426.947L311.52 436.668C310.573 437.313 310.076 438.441 310.238 439.575C310.4 440.71 311.193 441.653 312.283 442.008C316.19 443.21 322.165 445.094 330.534 447.66Z" fill="#2E3257"/>
<path d="M307.682 420.011L298.331 433.974C296.796 436.32 294.12 437.66 291.322 437.484C288.525 437.307 286.038 435.642 284.809 433.122C283.581 430.603 283.801 427.618 285.385 425.305L292.725 414.324L307.682 420.011Z" fill="white"/>
<path d="M230.215 296.62L232.596 302.978C231.787 305.975 230.927 308.842 230.018 311.577L199.098 297.383C198.034 296.898 197.352 295.836 197.353 294.667V285.42L230.215 296.62Z" fill="#349D7B"/>
<path d="M410.452 299.383C410.453 308.95 417.041 317.258 426.357 319.437C405.332 363.627 320.986 424.843 320.986 424.843L307.752 419.907L296.747 415.862C318.952 385.092 342.636 352.866 377.81 336.105C385.034 332.638 392.952 329.91 398.824 324.234C403.517 319.703 407.019 312.433 404.129 305.994C401.124 299.337 392.49 297.603 386.086 296.401L385.184 296.239C375.937 294.62 366.609 294.493 357.293 294.482C337.851 294.482 316.294 294.621 300.18 282.287C301.855 280.416 303.872 278.882 306.122 277.768C336.799 265.296 336.175 240.929 336.175 240.386C365.465 249.633 401.621 263.828 420.393 281.755C414.221 285.485 410.45 292.171 410.452 299.383Z" fill="#7AC7AE"/>
<path d="M396.304 301.695C406.707 306.7 402.685 318.305 395.449 324.2C389.091 329.39 380.965 331.921 373.741 335.597C358.53 343.353 345.11 354.287 333.285 366.505C318.86 381.393 306.7 398.223 294.551 414.983L292.725 414.301L288.922 412.891C288.922 412.891 315.392 374.446 318.86 368.043C322.131 361.893 331.713 337.238 362.714 322.05C362.991 321.957 366.552 320.004 366.69 320.212C374.4 316.744 379.151 315.912 387.496 314.259C388.906 313.982 388.305 311.809 386.895 312.098C378.445 313.776 370.218 316.429 362.379 320.004C351.167 319.414 320.235 317.611 293.627 314.132C293.627 314.132 290.517 295.487 298.77 284.079C310.445 292.945 325.229 295.788 339.677 296.516C348.809 296.967 357.952 296.632 367.083 296.886C373.026 296.921 378.958 297.373 384.838 298.238C388.801 298.858 392.659 300.021 396.304 301.695Z" fill="#7AC7AE"/>
<path d="M366.69 320.212L362.344 320.004C370.183 316.429 378.41 313.776 386.861 312.098C388.271 311.809 388.872 313.982 387.462 314.259C379.151 315.912 374.4 316.71 366.656 320.212" fill="#48B290"/>
<path d="M357.247 294.493C366.563 294.493 375.937 294.632 385.138 296.25L384.803 298.204C378.924 297.338 372.991 296.886 367.049 296.851C357.917 296.597 348.774 296.932 339.642 296.482C325.194 295.753 310.41 292.91 298.736 284.044C299.175 283.443 299.637 282.888 300.134 282.299C316.247 294.655 337.805 294.493 357.247 294.493Z" fill="#48B290"/>
<path d="M398.778 324.269C392.906 329.944 384.988 332.695 377.764 336.14C342.636 352.866 318.952 385.092 296.748 415.804L294.574 414.983C306.7 398.223 318.848 381.393 333.308 366.505C345.145 354.287 358.564 343.387 373.764 335.597C380.989 331.921 389.115 329.39 395.472 324.2C402.708 318.305 406.777 306.7 396.327 301.695C392.654 300.009 388.763 298.842 384.768 298.227L385.104 296.273L386.005 296.435C392.409 297.591 401.032 299.371 404.049 306.029C406.973 312.467 403.471 319.738 398.778 324.269Z" fill="#48B290"/>
<path d="M206.137 232.203L230.215 296.62L197.353 285.373V294.621C197.352 295.79 198.034 296.852 199.098 297.337L230.018 311.531C224.135 329.309 216.275 341.735 207.733 350.554C202.039 344.19 193.009 342 185.032 345.047C177.055 348.094 171.786 355.747 171.784 364.286C171.784 366.468 172.128 368.637 172.802 370.713C167.704 372.123 163.034 373.024 159.093 373.857C139.628 377.972 83.9601 400.708 83.9601 400.708L78.1806 395.634L69.9045 388.305C79.5215 379.659 89.439 371.337 99.842 363.639C110.245 355.94 121.48 347.815 133.629 342.833C140.385 340.141 147.589 338.749 154.862 338.729C161.543 338.579 168.271 338.868 174.871 337.573C184.95 335.62 192.81 329.17 192.07 318.224C191.573 310.919 189.25 303.729 187.978 296.551C186.707 289.373 186.106 282.183 187.377 275.075L206.137 232.203Z" fill="#48B290"/>
<path d="M188.163 308.283C189.562 314.837 191.828 322.732 187.297 328.581C183.205 333.852 176.061 335.458 169.773 336.071C162.965 336.73 156.122 336.186 149.302 336.753C143.609 337.227 138.026 338.6 132.762 340.822C120.972 345.746 110.176 353.432 99.9229 360.946C88.8379 369.014 78.435 377.717 68.2863 386.861L66.379 385.173L63.6396 382.757C63.6396 382.757 103.934 324.408 139.558 323.992C175.183 323.576 171.368 313.808 170.097 299.383C169.602 293.317 170.047 287.212 171.415 281.282L179.841 285.038C180.571 285.366 181.403 285.387 182.148 285.096C182.894 284.805 183.491 284.226 183.806 283.489L184.557 281.779C184.314 290.644 186.302 299.545 188.163 308.283Z" fill="#48B290"/>
<path d="M188.059 296.574C189.331 303.752 191.654 310.942 192.151 318.247C192.891 329.193 185.031 335.643 174.952 337.597C168.351 338.868 161.624 338.579 154.943 338.752C147.67 338.772 140.466 340.164 133.71 342.856C121.561 347.884 110.43 355.94 99.9229 363.662C89.4159 371.383 79.5908 379.705 69.9854 388.352L68.2863 386.86C78.435 377.717 88.8379 369.014 99.8767 360.945C110.129 353.444 120.925 345.746 132.762 340.821C138.04 338.596 143.639 337.222 149.349 336.753C156.168 336.186 163.011 336.753 169.819 336.071C176.107 335.458 183.251 333.851 187.343 328.581C191.874 322.732 189.655 314.837 188.21 308.283C186.349 299.545 184.361 290.644 184.603 281.779L187.505 275.098C186.187 282.206 186.788 289.408 188.059 296.574Z" fill="#349D7B"/>
<path d="M203.167 224.262L206.137 232.203L183.806 283.489C183.491 284.226 182.894 284.804 182.148 285.096C181.403 285.387 180.571 285.366 179.841 285.038L171.415 281.282C172.004 278.521 172.823 275.814 173.865 273.19L203.167 224.262Z" fill="#349D7B"/>
<path d="M192.382 343.734C198.244 343.729 203.829 346.227 207.733 350.6C196.336 362.414 183.621 367.731 172.802 370.782C170.757 364.506 171.838 357.63 175.711 352.284C179.584 346.939 185.781 343.769 192.382 343.758V343.734Z" fill="#349D7B"/>
<path d="M95.1953 450.157C95.271 450.674 95.271 451.2 95.1953 451.717C94.1666 461.739 63.8939 454.295 51.7802 451.717C39.6664 449.14 32.3728 430.426 25.449 411.435C22.8714 404.361 24.2931 400.28 27.4372 397.772C27.4372 397.772 40.071 446.4 57.0048 448.804L61.3625 449.452C76.9554 451.81 93.6002 454.769 95.1953 450.157Z" fill="#349D7B"/>
<path d="M95.1953 450.157C93.6002 454.781 76.9554 451.81 61.3625 449.452C61.848 438.98 75.4528 440.135 75.4528 440.135C80.1226 440.656 94.1204 442.979 95.1953 450.157Z" fill="white"/>
<path d="M87.5895 403.933C87.9548 404.256 88.1405 404.736 88.0877 405.221C88.0348 405.706 87.75 406.135 87.3237 406.372C82.0867 409.088 76.6815 411.466 71.1413 413.492C58.727 418.289 69.4305 433.998 72.9444 438.633C73.5387 439.457 74.4457 440 75.4527 440.135C75.4527 440.135 61.8479 438.98 61.3624 449.51L57.0047 448.862C40.071 446.458 27.4371 397.83 27.4371 397.83C32.7427 393.599 43.0069 393.831 47.5149 391.738C52.8782 389.253 57.0857 383.485 58.8888 380.711C59.1316 380.33 59.5343 380.079 59.9837 380.03C60.4332 379.98 60.8808 380.137 61.2006 380.457L63.6627 382.769L66.4021 385.185L57.0625 392.386C55.153 393.851 54.0269 396.116 54.011 398.523C54.0088 400.245 54.5825 401.917 55.6408 403.274C58.2728 406.68 63.1656 407.311 66.5755 404.684L78.2615 395.645L87.5895 403.933Z" fill="#2E3257"/>
<path d="M66.379 385.173L78.2615 395.68L66.5755 404.719C63.1656 407.345 58.2728 406.714 55.6408 403.309C54.5751 401.942 54.001 400.256 54.011 398.523C54.0071 396.104 55.1258 393.82 57.0394 392.339L66.379 385.173Z" fill="white"/>
<path d="M287.362 260.372L285.882 272.786L274.323 275.167C273.519 275.321 272.686 275.146 272.011 274.682L257.702 264.614L259.274 257.482C259.62 255.867 261.205 254.835 262.822 255.17L287.362 260.372Z" fill="#E4AE95"/>
<path d="M285.882 272.786L283.975 288.795V288.934C266.868 293.615 257.84 286.298 254.951 283.235C254.281 282.516 254.008 281.513 254.222 280.553L257.748 264.614L272.058 274.682C272.732 275.146 273.565 275.321 274.37 275.167L285.882 272.786Z" fill="#A76C50"/>
<path d="M306.503 72.0659C301.822 69.3264 289.639 73.7882 288.945 73.5454L304.365 80.2265L305.289 80.631C306.604 80.0641 307.839 79.3298 308.965 78.4464C311.751 76.1346 310.098 74.1812 306.503 72.0659Z" fill="#A76C50"/>
<path d="M305.336 80.6542L304.411 80.2496L288.991 73.5686L276.681 69.3265C276.681 69.3265 272.173 68.8526 270.717 71.4302C270.363 72.0101 269.977 72.5696 269.561 73.1062C268.863 73.9693 268.269 74.9122 267.792 75.9151C266.81 78.2268 267.342 80.8391 273.745 82.7579C275.34 83.2318 277.051 83.8213 278.82 84.4686L279.236 84.6189C279.617 84.746 279.999 84.8963 280.392 85.0581C280.542 85.0581 280.692 85.1737 280.842 85.2315C289.292 88.4911 298.528 92.895 302.458 94.155C302.999 94.3689 303.575 94.4825 304.157 94.4902C305.03 94.2168 305.787 93.6594 306.307 92.9066C308.179 90.5602 309.613 85.8557 305.336 80.6542Z" fill="#DA9C80"/>
<path d="M330.418 234.792C330.904 245.044 328.477 259.065 311.046 266.544C299.753 271.422 292.135 265.746 287.5 259.424L289.223 245.079C303.758 246.917 318.454 243.247 330.418 234.792V234.792Z" fill="#FF3D0A"/>
<path d="M329.817 228.955C329.968 229.949 330.095 231.024 330.199 232.168C318.519 240.884 303.91 244.722 289.454 242.872L290.321 235.578C297.534 236.734 304.769 235 311.658 232.526C317.751 230.468 323.618 227.795 329.17 224.551C329.436 226.296 329.667 227.845 329.817 228.955Z" fill="#FF3D0A"/>
<path d="M327.899 216.147C328.234 218.309 328.546 220.332 328.812 222.17C323.214 225.544 317.259 228.289 311.057 230.353C304.446 232.734 297.522 234.468 290.598 233.347L291.477 225.996C304.326 226.403 317.005 222.974 327.899 216.147Z" fill="#FF3D0A"/>
<path d="M325.356 199.607C326.084 204.3 326.835 209.224 327.54 213.743C316.882 220.625 304.39 224.119 291.708 223.765L296.609 182.696C296.609 182.696 309.959 197.029 325.356 199.607Z" fill="#FF3D0A"/>
<path d="M323.31 95.23C323.337 96.7469 323.228 98.2633 322.986 99.7611C320.871 93.5771 314.733 88.2022 307.96 88.9535C308.091 88.19 308.115 87.4117 308.029 86.6417C314.236 86.11 320.015 89.9707 323.31 95.23Z" fill="white"/>
<path d="M323.31 95.2299C320.05 89.9706 314.259 86.11 308.075 86.6763C307.977 85.6363 307.715 84.6183 307.301 83.6595C309.463 83.0136 311.714 82.7133 313.97 82.7694C315.531 82.6907 317.094 82.8744 318.594 83.3127C321.176 85.6015 322.822 88.7625 323.217 92.1899C323.303 93.2009 323.334 94.2157 323.31 95.2299Z" fill="#DE370B"/>
<path d="M322.986 99.761C322.403 103.34 320.989 106.732 318.86 109.667C317.091 108.997 315.542 108.407 314.236 107.945C314.444 107.552 314.629 107.147 314.814 106.789C315.97 104.257 315.6 100.015 306.191 92.9182C307.111 91.7771 307.713 90.4134 307.936 88.965C314.733 88.1906 320.871 93.577 322.986 99.761Z" fill="#DE370B"/>
<path d="M291.742 223.765C304.425 224.119 316.917 220.625 327.575 213.743C327.691 214.564 327.818 215.361 327.933 216.147C317.04 222.974 304.361 226.402 291.511 225.996L291.742 223.765Z" fill="white"/>
<path d="M306.26 92.9065C315.669 99.9575 316.016 104.2 314.883 106.777C314.698 107.193 314.513 107.598 314.305 107.933C312.895 107.425 311.809 107.066 311.092 106.87C310.375 106.673 309.786 106.523 309.023 106.35C308.064 106.153 306.989 105.957 305.833 105.783C299.903 104.905 291.789 104.627 284.726 106.719L283.201 106.269C285.004 100.119 287.593 94.178 292.448 90.0862C296.667 91.9125 300.308 93.4845 302.411 94.1665C302.953 94.3804 303.528 94.494 304.111 94.5017C304.985 94.2253 305.742 93.6637 306.26 92.9065Z" fill="#FF5713"/>
<path d="M312.606 80.6541C310.405 80.6902 308.223 81.0604 306.133 81.7522C305.902 81.4054 305.625 81.0471 305.336 80.6888C306.65 80.1219 307.885 79.3876 309.011 78.5042C310.921 78.9505 312.763 79.6461 314.49 80.5732C313.878 80.527 313.242 80.5501 312.606 80.6541Z" fill="#DE370B"/>
<path d="M306.145 81.7061C308.234 81.0144 310.417 80.6441 312.618 80.608C313.254 80.5502 313.889 80.5271 314.514 80.5271C315.958 81.284 317.302 82.2199 318.513 83.3128C317.013 82.8745 315.45 82.6908 313.889 82.7695C311.633 82.7134 309.382 83.0137 307.22 83.6596C306.92 82.9779 306.56 82.3242 306.145 81.7061H306.145Z" fill="white"/>
<path d="M330.419 234.792C318.454 243.247 303.758 246.917 289.223 245.079L289.477 242.871C303.933 244.722 318.542 240.884 330.222 232.168C330.291 233 330.349 233.89 330.419 234.792Z" fill="white"/>
<path d="M329.17 224.551C323.618 227.795 317.751 230.468 311.658 232.526C304.723 235 297.534 236.722 290.321 235.578L290.598 233.347C297.534 234.503 304.469 232.735 311.057 230.353C317.259 228.289 323.214 225.544 328.812 222.17C328.939 223.002 329.066 223.799 329.17 224.551Z" fill="white"/>
<path d="M290.17 89.0923L292.482 90.0748C287.628 94.1898 285.038 100.131 283.235 106.257L281.085 105.575C282.888 99.4028 285.524 93.4384 290.17 89.0923Z" fill="white"/>
<path d="M287.581 87.9941L290.171 89.15C285.547 93.4962 282.888 99.4605 281.051 105.656C278.982 104.997 277.051 104.304 275.271 103.599C277.602 97.2154 281.916 91.7467 287.581 87.9941V87.9941Z" fill="#FF5713"/>
<path d="M285.131 86.9768L287.581 87.994C281.917 91.7279 277.595 97.1755 275.248 103.541C274.531 103.263 273.838 102.986 273.167 102.697C275.513 96.3892 279.676 90.9186 285.131 86.9768Z" fill="white"/>
<path d="M281.444 85.4858C282.669 85.9598 283.894 86.4683 285.131 86.9769C279.676 90.9187 275.513 96.3893 273.167 102.697C271.054 101.815 268.989 100.82 266.983 99.7148C268.255 95.9634 270.51 92.6222 273.514 90.04C275.848 88.0381 278.538 86.4932 281.444 85.4858Z" fill="#FF5713"/>
<path d="M278.404 84.33C276.471 85.2065 274.645 86.3001 272.959 87.5896C269.325 90.4109 266.567 94.2071 265.007 98.5359C258.372 94.444 255.147 90.121 254.199 86.0176C253.783 84.2424 253.783 82.3948 254.199 80.6196C256.083 72.4243 269.503 73.0832 269.503 73.0832C268.805 73.9463 268.211 74.8891 267.735 75.892C267.735 75.892 258.95 76.9785 260.73 80.6196C262.383 84.0179 268.706 81.1744 278.404 84.33Z" fill="#FF5713"/>
<path d="M280.345 85.058C280.496 85.058 280.646 85.1736 280.796 85.2314L281.444 85.4857C278.538 86.4931 275.848 88.038 273.514 90.0399C270.51 92.6221 268.255 95.9633 266.983 99.7147C266.29 99.3333 265.631 98.9403 265.007 98.5588C266.563 94.2217 269.321 90.417 272.959 87.5894C274.645 86.2999 276.471 85.2064 278.404 84.3298L278.831 84.4685L279.247 84.6188L280.345 85.058Z" fill="white"/>
<path d="M273.699 82.7579C275.294 83.2318 277.005 83.8213 278.773 84.4686C268.891 81.0819 262.406 84.064 260.742 80.6426C258.962 77.0016 267.746 75.915 267.746 75.915C266.764 78.2499 267.295 80.8391 273.699 82.7579Z" fill="#DE370B"/>
<path d="M322.073 178.465C322.073 178.465 323.622 188.371 325.356 199.607C309.959 197.029 296.643 182.696 296.643 182.696L298.319 168.687C305.926 172.627 313.863 175.895 322.038 178.454L322.073 178.465Z" fill="#DE370B"/>
<path d="M283.524 237.566C282.955 237.306 282.336 237.171 281.709 237.173C279.245 237.173 277.248 239.171 277.248 241.635C277.248 244.099 279.245 246.097 281.709 246.097H282.045C284.078 245.938 285.745 244.421 286.093 242.412C286.442 240.403 285.385 238.413 283.524 237.578V237.566Z" fill="#A76C50"/>
<path fill-rule="evenodd" clip-rule="evenodd" d="M443.489 84.7425C441.951 83.321 439.888 82.6095 437.8 82.781L393.114 86.3412C391.015 86.5091 389.083 87.5514 387.791 89.2134C386.498 90.8754 385.963 93.0041 386.317 95.0797L388.433 107.297C388.444 107.297 421.202 104.512 429.05 103.83C430.05 103.749 430.873 103.011 431.062 102.027L432.449 94.9756L435.604 101.911C435.997 102.785 436.904 103.311 437.858 103.217L445.892 102.616V90.2596C445.899 88.1653 445.027 86.164 443.489 84.7425ZM419.884 91.0109C422.074 91.0109 423.849 92.786 423.849 94.9756C423.849 96.0271 423.431 97.0356 422.688 97.7791C421.944 98.5226 420.936 98.9403 419.884 98.9403C417.695 98.9403 415.92 97.1653 415.92 94.9756C415.92 92.786 417.695 91.0109 419.884 91.0109Z" fill="#DA9C80"/>
<path d="M428.553 157.694C431.808 157.696 435.017 158.469 437.916 159.948C431.559 173.426 421.734 181.598 409.377 185.886C406.867 179.542 407.659 172.366 411.494 166.722C415.328 161.078 421.707 157.698 428.53 157.694H428.553Z" fill="#DA9C80"/>
<path d="M419.884 91.0572C421.502 91.0385 422.969 92.0017 423.596 93.4931C424.223 94.9844 423.883 96.7067 422.738 97.8489C421.592 98.9911 419.869 99.3254 418.379 98.6945C416.89 98.0635 415.931 96.5931 415.954 94.9756C415.979 92.8175 417.726 91.0759 419.884 91.0572Z" fill="#A76C50"/>
<path d="M445.845 113.158V102.616L437.812 103.217C436.874 103.291 435.991 102.768 435.604 101.911L432.449 94.9756L431.062 102.027C430.873 103.011 430.05 103.749 429.05 103.83C421.202 104.512 388.444 107.297 388.433 107.297L394.154 140.518C394.154 140.518 340.428 117.908 318.86 109.667C317.091 108.997 315.542 108.407 314.236 107.945C312.93 107.482 311.739 107.078 311.023 106.881C310.306 106.685 309.717 106.534 308.954 106.361C307.994 106.165 306.919 105.968 305.763 105.795C299.834 104.916 291.719 104.639 284.657 106.731C277.941 108.684 272.173 112.684 270.15 120.174C269.681 121.905 269.33 123.666 269.099 125.445C268.96 126.427 268.867 127.433 268.821 128.45C268.821 128.45 274.936 142.055 299.66 156.885C319.31 168.652 350.623 181.159 399.945 188.348C403.132 187.77 406.27 186.947 409.331 185.886C406.156 177.901 408.269 168.784 414.633 163.009C420.997 157.234 430.276 156.014 437.916 159.948C443.349 148.47 446.215 133.178 445.845 113.158Z" fill="#E4AE95"/>
<path d="M416.37 149.742C409.437 144.717 401.809 140.73 393.727 137.905L394.166 140.46C401.675 143.209 408.766 146.986 415.238 151.683C416.417 152.527 417.538 150.585 416.37 149.742Z" fill="#DA9C80"/>
<path d="M299.73 156.943C275.005 142.113 268.891 128.508 268.891 128.508C268.324 140.68 273.976 154.989 295.777 167.346L298.354 168.502V168.802C305.961 172.743 313.897 176.011 322.073 178.57C325.263 179.594 328.638 180.592 332.199 181.563C357.096 188.314 380.746 191.966 400.015 188.499C350.693 181.217 319.345 168.652 299.73 156.943Z" fill="#DA9C80"/>
<path d="M298.354 168.386V168.687C297.487 168.224 296.632 167.762 295.811 167.288L298.354 168.386Z" fill="#DA9C80"/>
<path d="M295.742 167.346C273.942 154.989 268.29 140.679 268.856 128.508C268.856 127.491 268.995 126.485 269.133 125.503C269.133 125.503 260.013 147.28 293.534 179.829C294.528 180.8 295.557 181.771 296.62 182.754L298.296 168.744C297.453 168.224 296.597 167.762 295.742 167.346Z" fill="#B57A60"/>
<path d="M286.795 184.072C289.258 184.072 291.255 186.067 291.257 188.529C291.259 190.992 289.266 192.991 286.803 192.995C284.34 192.999 282.34 191.007 282.334 188.545C282.331 187.359 282.799 186.222 283.636 185.382C284.473 184.543 285.61 184.072 286.795 184.072V184.072Z" fill="#A76C50"/>
<path d="M288.159 210.911C286.905 209.083 284.504 208.445 282.508 209.41C280.512 210.375 279.521 212.654 280.176 214.772C280.83 216.89 282.934 218.212 285.127 217.883C287.319 217.553 288.942 215.671 288.945 213.454C288.95 212.546 288.675 211.659 288.159 210.911Z" fill="#A76C50"/>
<path fill-rule="evenodd" clip-rule="evenodd" d="M269.156 125.445C269.156 125.445 260.036 147.222 293.557 179.771C293.655 179.863 293.752 179.955 293.848 180.047C294.004 180.195 294.159 180.343 294.314 180.49L294.316 180.491L294.316 180.491C295.082 181.221 295.843 181.945 296.643 182.65L287.477 259.378L287.362 260.325L262.857 255.147C261.24 254.812 259.655 255.844 259.308 257.459L257.736 264.591L254.211 280.53C253.997 281.49 254.269 282.493 254.939 283.212C257.829 286.275 266.856 293.592 283.963 288.91L282.16 303.937C281.895 306.174 280.02 307.871 277.768 307.913C233.752 308.514 203.398 289.604 195.145 283.825C193.745 282.845 193.024 281.155 193.284 279.467L200.196 234.803L180.269 271.572C179.676 272.665 178.658 273.464 177.456 273.779C176.254 274.094 174.975 273.898 173.923 273.237L161.208 265.249C159.476 264.164 158.7 262.041 159.324 260.094C165.439 240.768 183.517 189.643 198.3 153.544C203.537 140.749 208.368 129.837 212.102 122.902C226.744 95.7076 253.118 86.4173 254.185 86.0416L254.188 86.0405C255.817 93.0452 264.071 100.743 284.715 106.731C277.999 108.684 272.231 112.684 270.208 120.174C269.739 121.905 269.388 123.666 269.156 125.445ZM281.663 246.085H281.998V246.073C284.031 245.915 285.698 244.398 286.047 242.388C286.396 240.379 285.338 238.389 283.478 237.554C282.908 237.294 282.289 237.16 281.663 237.161C279.199 237.161 277.201 239.159 277.201 241.623C277.201 244.087 279.199 246.085 281.663 246.085ZM287.084 217.049C285.611 218.101 283.648 218.158 282.116 217.194C280.584 216.23 279.786 214.436 280.096 212.652C280.407 210.869 281.764 209.45 283.532 209.06C285.3 208.671 287.128 209.388 288.159 210.876C289.536 212.885 289.059 215.624 287.084 217.049ZM282.672 190.203C283.362 191.872 284.99 192.96 286.795 192.96V192.995C287.984 192.998 289.124 192.526 289.962 191.683C290.8 190.841 291.266 189.698 291.257 188.51C291.262 186.704 290.178 185.074 288.511 184.38C286.844 183.685 284.923 184.064 283.644 185.339C282.366 186.615 281.982 188.535 282.672 190.203Z" fill="#DA9C80"/>
<path d="M206.53 134.322C211.588 137.956 217.149 140.834 223.036 142.864C223.446 142.989 223.89 142.878 224.192 142.575C228.277 137.389 232.418 132.249 236.618 127.156C233.867 133.309 231.527 139.638 229.613 146.101C229.487 146.59 229.693 147.105 230.122 147.372C238.092 152.195 246.693 155.886 255.679 158.341C260.302 159.694 264.856 160.896 269.457 162.11C271.769 162.711 274.08 163.327 276.392 163.959C277.028 164.132 278.912 164.456 280.542 164.907C279.86 163.982 279.213 163.069 278.612 162.167C278.011 162.04 277.456 161.925 276.982 161.798C271.769 160.341 266.521 159.035 261.296 157.602C251.113 154.804 241.091 151.452 232.052 145.893C234.749 136.982 238.259 128.338 242.536 120.07C243.091 119.007 241.635 117.689 240.768 118.718C235.374 125.121 230.072 131.602 224.863 138.16C223.418 139.986 222.944 140.471 220.725 139.593C218.631 138.761 216.586 137.811 214.598 136.749C212.147 135.425 209.795 133.927 207.559 132.265C207.155 132.935 206.842 133.617 206.53 134.322Z" fill="#B57A60"/>
<path d="M254.13 86.0405C253.113 86.3989 226.701 95.6806 212.044 122.902C208.311 129.837 203.479 140.749 198.243 153.544C191.307 158.226 184.453 165.485 178.304 171.796C176.35 173.796 171.831 179.355 166.121 186.614C167.276 173.9 186.996 143.558 190.995 137.882C194.995 132.207 228.539 92.213 228.539 92.213C236.887 89.4635 245.446 87.3992 254.13 86.0405Z" fill="#A76C50"/>
<path d="M228.539 92.2131C228.539 92.2131 195.018 132.23 191.042 137.905C187.065 143.581 167.334 173.934 166.167 186.638C156.203 199.352 142.61 217.118 132.484 230.469L116.14 208.38C115.259 207.185 113.636 206.816 112.326 207.513L107.54 210.033L110.257 203.849C110.701 202.839 110.555 201.666 109.875 200.797L103.102 192.082C112.695 178.835 128.647 158.399 147.615 140.31C153.932 144.549 162.073 144.961 168.786 141.381C175.499 137.8 179.692 130.811 179.691 123.202C179.693 120.67 179.23 118.159 178.327 115.793C193.947 105.746 210.832 97.8167 228.539 92.2131Z" fill="#B57A60"/>
<path d="M178.327 115.793C180.752 122.13 179.906 129.255 176.065 134.848C172.224 140.441 165.878 143.789 159.093 143.8C155.007 143.814 151.01 142.606 147.615 140.333C154.59 133.613 162.008 127.369 169.819 121.642C172.647 119.569 175.483 117.62 178.327 115.793Z" fill="#A76C50"/>
<path fill-rule="evenodd" clip-rule="evenodd" d="M132.484 230.446L116.14 208.38C115.259 207.185 113.636 206.816 112.326 207.513L107.54 210.033L110.257 203.849C110.701 202.839 110.555 201.666 109.875 200.797L103.102 192.082C99.7033 196.775 97.1025 200.566 95.4496 203.028C94.1677 204.943 94.0958 207.423 95.2647 209.409L114.013 241.172C115.028 242.896 116.836 243.998 118.832 244.112C120.829 244.226 122.75 243.336 123.954 241.739L132.484 230.446ZM117.053 224.25C119.249 224.25 121.029 226.03 121.029 228.226C121.029 229.281 120.61 230.292 119.865 231.038C119.119 231.784 118.108 232.203 117.053 232.203C114.857 232.203 113.077 230.422 113.077 228.226C113.077 226.03 114.857 224.25 117.053 224.25Z" fill="#A76C50"/>
<path d="M117.053 224.262C118.666 224.248 120.127 225.209 120.752 226.695C121.378 228.181 121.044 229.898 119.908 231.041C118.771 232.185 117.056 232.528 115.566 231.911C114.077 231.294 113.107 229.839 113.112 228.226C113.118 226.048 114.875 224.281 117.053 224.262Z" fill="#E4AE95"/>
<path d="M64.3465 234.997L90.3381 286.72L75.4552 294.199L49.4636 242.476L64.3465 234.997Z" fill="#211E21"/>
<path d="M76.501 275.405L80.2638 282.893L76.2461 284.912L72.4834 277.424L76.501 275.405Z" fill="#FFF1ED"/>
<path d="M77.6027 310.26L75.2909 293.754L90.1787 286.264L102.119 297.961C102.702 298.531 102.974 299.348 102.848 300.154C102.721 300.959 102.213 301.654 101.483 302.018L81.2437 312.19C80.5121 312.556 79.6489 312.546 78.9262 312.162C78.2036 311.779 77.7106 311.071 77.6027 310.26Z" fill="#211E21"/>
<path d="M96.5477 299.383L82.2378 306.572" stroke="#FFF1ED" stroke-width="4" stroke-linecap="round"/>
<path d="M51.8495 260.372L65.385 276.97C59.2241 281.108 52.6702 272.659 50.2775 268.798C48.9945 266.81 50.2313 263.365 51.8495 260.372Z" fill="#FF9C90"/>
<path d="M55.5368 254.581L66.3906 276.161C66.0678 276.455 65.724 276.726 65.3618 276.97L51.8495 260.372C52.9313 258.351 54.1639 256.415 55.5368 254.581V254.581Z" fill="#F7887B"/>
<path d="M76.389 240.444C76.389 240.444 76.4699 247.784 72.5399 253.159C71.808 250.105 70.3888 247.259 68.3903 244.836C70.9176 243.132 73.5949 241.662 76.389 240.444V240.444Z" fill="#F7887B"/>
<path d="M79.9029 256.349C82.7232 252.396 91.5658 253.691 91.5658 253.691C90.1479 255.355 88.6838 257.158 87.1734 259.1C76.2965 273.179 72.4243 277.294 69.8351 276.889C69.8235 276.935 77.071 260.337 79.9029 256.349Z" fill="#FF9C90"/>
<path d="M96.3859 211.27L110.973 235.994C109.777 236.727 108.619 237.521 107.506 238.375L90.6064 220.228L96.3859 211.27Z" fill="#FF9C90"/>
<path d="M407.528 25.4258C413.631 23.5648 407.528 36.8691 407.528 36.8691C404.523 39.1809 401.748 41.6545 399.136 43.9894C396.316 46.567 394.825 50.8438 394.154 55.7216C394.096 55.0743 392.524 35.8057 407.528 25.4258Z" fill="#FF9C90"/>
<path d="M426.6 83.6595L396.397 86.0406C396.397 86.0406 396.108 84.8038 395.726 82.7579L412.567 75.915C411.955 68.737 421.144 57.4208 421.422 57.0625C419.954 59.9522 419.26 62.8419 419.884 65.3502C422.786 77.2443 426.6 83.6595 426.6 83.6595Z" fill="#FF9C90"/>
<path d="M107.54 238.387C101.671 242.9 96.3137 248.044 91.5658 253.725C91.5658 253.725 82.7233 252.431 79.9029 256.384C77.0826 260.337 69.8236 276.924 69.8236 276.924C69.2849 276.834 68.7855 276.584 68.3903 276.207C65.6046 273.896 68.3903 265.966 71.8002 259.343C72.7544 257.429 73.0158 255.244 72.5399 253.159C76.47 247.784 76.389 240.444 76.389 240.444L77.9957 239.705L90.6065 220.228L107.54 238.387Z" fill="#FFB6AD"/>
<path d="M441.777 32.7427C442.375 34.0158 442.01 35.5333 440.898 36.3953C436.529 39.7589 425.71 48.6361 421.433 57.051C421.156 57.3862 411.966 68.7255 412.579 75.9035L395.726 82.758C394.651 77.1288 392.836 65.2925 394.154 55.7333C394.825 50.8555 396.316 46.5787 399.136 44.001C401.702 41.6893 404.522 39.2157 407.528 36.8808C416.659 29.7605 427.247 23.773 435.755 25.842C435.755 25.8305 438.297 25.449 441.777 32.7427Z" fill="#FFB6AD"/>
</svg>
